<?xml version="1.0" encoding="UTF-8" standalone="no"?>
<!-- Created with Inkscape (http://www.inkscape.org/) -->

<svg
   width="68.232574mm"
   height="68.232574mm"
   viewBox="0 0 68.232574 68.232574"
   version="1.1"
   id="svg5"
   xml:space="preserve"
   xmlns="http://www.w3.org/2000/svg"
   xmlns:svg="http://www.w3.org/2000/svg"><defs
     id="defs2" /><g
     id="layer1"
     transform="translate(-206.43674,-348.90377)"><circle
       style="fill:#fb4b05;fill-opacity:1;stroke:none;stroke-width:1.5;stroke-dasharray:none"
       id="circle7861"
       cx="-115.30442"
       cy="437.50491"
       r="33.370876"
       transform="rotate(-46.907183)" /><circle
       style="fill:none;fill-opacity:1;stroke:#000000;stroke-width:1.5;stroke-dasharray:none"
       id="circle7867"
       cx="-115.35804"
       cy="437.33585"
       r="33.370876"
       transform="rotate(-46.907183)" /><g
       id="g7877"
       transform="translate(-110.13601,-54.506311)"><path
         style="fill-opacity:0;stroke:#000000;stroke-width:1.68356;stroke-linecap:round;stroke-dasharray:none;stroke-opacity:1"
         d="m 351.904,470.44542 c 0,0 -4.45223,-6.20332 -6.00256,-9.71877 -2.30188,-5.21954 -3.66429,-10.92452 -4.78496,-16.62895 -1.15387,-5.87345 -1.97285,-11.89666 -1.97239,-17.99614 3.1e-4,-3.98986 0.17655,-8.08876 1.29198,-12.02358 0.91048,-3.21186 4.32217,-9.15272 4.32217,-9.15272"
         id="path7869" /><path
         style="fill-opacity:0;stroke:#000000;stroke-width:1.5;stroke-dasharray:none;stroke-opacity:1"
         d="m 367.67143,409.09052 c 0,0 -15.60811,2.83448 -13.55371,14.12021 0.99704,5.47716 10.71337,15.42835 14.04041,19.46432 1.51256,1.83484 2.8994,3.32435 5.25308,8.29256 1.94905,4.11412 2.4921,8.08631 2.4921,8.08631"
         id="path7871" /><path
         style="fill-opacity:0;stroke:#000000;stroke-width:1.5;stroke-dasharray:none;stroke-opacity:1"
         d="m 325.52013,415.34157 c 0,0 3.99764,8.33098 3.70854,12.74655 -0.23645,3.61144 -2.10538,5.88343 -4.36663,9.94073 -0.90153,1.61759 -1.78704,2.49362 -2.9282,4.90591 -0.98722,2.08688 -2.06467,4.82589 -1.74782,8.13238"
         id="path7873" /><path
         style="fill-opacity:0;stroke:#000000;stroke-width:1.72967;stroke-linecap:round;stroke-dasharray:none;stroke-opacity:1"
         d="m 383.63482,432.94134 c 0,0 -14.91213,-15.93167 -33.11606,-15.5701 -18.17983,0.36108 -32.46586,14.32495 -32.46586,14.32495"
         id="path7875" /></g></g></svg>
