<?xml version="1.0" encoding="UTF-8" standalone="no"?>
<!-- Created with Inkscape (http://www.inkscape.org/) -->

<svg
   width="68.254776mm"
   height="68.254761mm"
   viewBox="0 0 68.254776 68.254761"
   version="1.1"
   id="svg5"
   xml:space="preserve"
   xmlns="http://www.w3.org/2000/svg"
   xmlns:svg="http://www.w3.org/2000/svg"><defs
     id="defs2" /><g
     id="layer1"
     transform="translate(-238.23125,-267.30154)"><g
       id="g1677"
       transform="rotate(-22.168362,178.18077,-496.35264)"><g
         id="g1667"
         transform="translate(-222.46984,127.20214)"><circle
           style="fill:#fb4b05;fill-opacity:1;stroke:#000000;stroke-width:1.5;stroke-dasharray:none"
           id="circle1663"
           cx="186.84026"
           cy="150.79012"
           r="33.370876" /><path
           style="fill-opacity:0;stroke:#000000;stroke-width:1.5;stroke-linecap:round;stroke-dasharray:none;stroke-opacity:1"
           d="m 183.66698,117.7784 c 0,0 17.01224,2.95992 26.28473,14.03473 6.31726,7.54516 9.84371,22.33832 9.84371,22.33832"
           id="path1665" /></g><path
         style="fill-opacity:0;stroke:#000000;stroke-width:1.46404;stroke-linecap:round;stroke-dasharray:none;stroke-opacity:1"
         d="m -39.081698,311.10417 c 0,0 12.36166,-3.4215 17.34906,-10.96696 4.01181,-6.06945 3.63231,-11.4466 4.06041,-17.18157 0.4418,-5.91872 1.13808,-12.34389 4.42956,-17.30343 1.40627,-2.11893 6.2751997,-4.38679 6.2751997,-4.38679"
         id="path1669" /><path
         style="fill-opacity:0;stroke:#000000;stroke-width:1.5;stroke-dasharray:none;stroke-opacity:1"
         d="m -25.357728,246.56229 c 0,0 -4.59041,5.11102 -9.97628,6.79616 -5.30937,1.21159 -10.2545,-1.30429 -17.928065,0.62073 -3.8492,1.06107 -11.19433,7.63946 -11.74385,8.26204"
         id="path1671" /><path
         style="fill-opacity:0;stroke:#000000;stroke-width:1.47694;stroke-linecap:round;stroke-dasharray:none;stroke-opacity:1"
         d="m -12.109388,254.47895 c 0,0 -18.68081,7.29135 -29.06807,15.68475 -10.423078,8.42233 -20.662849,28.05827 -20.662849,28.05827"
         id="path1673" /><path
         style="fill-opacity:0;stroke:#000000;stroke-width:1.5;stroke-dasharray:none;stroke-opacity:1"
         d="m -25.357728,246.56229 c 0,0 -4.59041,5.11102 -9.97628,6.79616 -5.30937,1.21159 -10.2545,-1.30429 -17.928065,0.62073 -3.8492,1.06107 -11.19433,7.63946 -11.74385,8.26204"
         id="path1675" /></g></g></svg>
