<?xml version="1.0" encoding="UTF-8" standalone="no"?>
<!-- Created with Inkscape (http://www.inkscape.org/) -->

<svg
   width="51.513958mm"
   height="54.642078mm"
   viewBox="0 0 51.513958 54.642078"
   version="1.1"
   id="svg260"
   xml:space="preserve"
   xmlns="http://www.w3.org/2000/svg"
   xmlns:svg="http://www.w3.org/2000/svg"><defs
     id="defs257" /><g
     id="layer1"
     transform="translate(296.89591,551.80998)"><g
       id="g18757"
       transform="translate(-219.88677,207.43334)"><path
         style="fill:none;stroke:#1a1a1a;stroke-width:0.542765;stroke-linecap:round;stroke-dasharray:none;stroke-opacity:1"
         d="m -74.939845,-743.48634 c 0.40176,3.01676 11.80613,36.92709 15.60303,38.17374 2.96039,0.97201 26.55369,-35.57622 25.51076,-36.61949"
         id="path18252" /><path
         style="fill:none;stroke:#1a1a1a;stroke-width:0.542765;stroke-linecap:round;stroke-dasharray:none;stroke-opacity:1"
         d="m -70.669965,-742.23038 c -1.75013,1.50687 13.43613,37.22514 16.99337,37.35734 3.18823,0.11856 25.40939,-37.01765 25.57354,-37.60709"
         id="path18254" /><path
         style="fill:none;stroke:#1a1a1a;stroke-width:0.542765;stroke-linecap:round;stroke-dasharray:none;stroke-opacity:1"
         d="m -67.311575,-741.66529 c -2.00134,-0.75351 14.68703,36.69797 18.81435,36.79225 4.57227,0.10444 19.30268,-32.24388 20.70809,-37.85824"
         id="path18256" /><path
         style="fill:none;stroke:#1a1a1a;stroke-width:0.542765;stroke-linecap:round;stroke-dasharray:none;stroke-opacity:1"
         d="m -61.622135,-741.23705 c -0.20519,5.355 16.51269,36.34447 19.56785,36.32408 5.30883,-0.0357 13.79062,-36.28538 14.26515,-37.81831"
         id="path18258" /><path
         style="fill:none;stroke:#1a1a1a;stroke-width:0.542765;stroke-linecap:round;stroke-dasharray:none;stroke-opacity:1"
         d="m -63.500235,-711.77926 c 8.86657,-9.32036 16.6815,-17.80726 22.48243,-29.22052"
         id="path18260" /><path
         style="fill:none;stroke:#1a1a1a;stroke-width:0.542765;stroke-linecap:round;stroke-dasharray:none;stroke-opacity:1"
         d="m -66.104575,-717.53737 c 7.51857,-7.11045 13.43883,-14.84253 17.76067,-23.2405"
         id="path18262" /><path
         style="fill:none;stroke:#1a1a1a;stroke-width:0.542765;stroke-linecap:round;stroke-dasharray:none;stroke-opacity:1"
         d="m -68.990205,-725.23765 c 5.27741,-3.46533 10.19637,-9.8004 13.36451,-15.45136"
         id="path18264" /><path
         style="fill:none;stroke:#1a1a1a;stroke-width:0.542765;stroke-linecap:round;stroke-dasharray:none;stroke-opacity:1"
         d="m -71.387785,-732.25297 c 3.43364,-1.95364 6.11244,-5.81642 8.79132,-8.92445"
         id="path18266" /><path
         style="fill:none;stroke:#1a1a1a;stroke-width:0.542765;stroke-linecap:round;stroke-dasharray:none;stroke-opacity:1"
         d="m -38.168985,-709.9544 c -5.65277,-7.04486 -12.67868,-17.02964 -16.08018,-30.91217"
         id="path18268" /><path
         style="fill:none;stroke:#1a1a1a;stroke-width:0.542765;stroke-linecap:round;stroke-dasharray:none;stroke-opacity:1"
         d="m -46.701025,-740.91108 c 1.62803,7.48116 6.91478,15.78213 12.27246,21.32942"
         id="path18270" /><path
         style="fill:none;stroke:#1a1a1a;stroke-width:0.542765;stroke-linecap:round;stroke-dasharray:none;stroke-opacity:1"
         d="m -39.544935,-741.13345 c 1.41121,4.43012 4.60553,9.31748 7.94729,12.20701"
         id="path18272" /><path
         style="fill:none;stroke:#1a1a1a;stroke-width:0.542765;stroke-linecap:round;stroke-dasharray:none;stroke-opacity:1"
         d="m -32.816675,-741.9856 c 0.41196,1.43104 2.51933,3.67824 3.62206,4.73253"
         id="path18274" /><path
         style="fill:none;stroke:#f9f9f9;stroke-width:0.310151;stroke-linecap:round;stroke-dasharray:none;stroke-opacity:1"
         d="m -74.939845,-743.48634 c 0.40176,3.01676 11.80613,36.92709 15.60303,38.17374 2.96039,0.97201 26.55369,-35.57622 25.51076,-36.61949"
         id="path18276" /><path
         style="fill:none;stroke:#f9f9f9;stroke-width:0.310151;stroke-linecap:round;stroke-dasharray:none;stroke-opacity:1"
         d="m -70.669965,-742.23038 c -1.75013,1.50687 13.43613,37.22514 16.99337,37.35734 3.18823,0.11856 25.40939,-37.01765 25.57354,-37.60709"
         id="path18278" /><path
         style="fill:none;stroke:#f9f9f9;stroke-width:0.310151;stroke-linecap:round;stroke-dasharray:none;stroke-opacity:1"
         d="m -67.311575,-741.66529 c -2.00134,-0.75351 14.68703,36.69797 18.81435,36.79225 4.57227,0.10444 19.30268,-32.24388 20.70809,-37.85824"
         id="path18280" /><path
         style="fill:none;stroke:#f9f9f9;stroke-width:0.310151;stroke-linecap:round;stroke-dasharray:none;stroke-opacity:1"
         d="m -61.622135,-741.23705 c -0.20519,5.355 16.51269,36.34447 19.56785,36.32408 5.30883,-0.0357 13.79062,-36.28538 14.26515,-37.81831"
         id="path18282" /><path
         style="fill:none;stroke:#f9f9f9;stroke-width:0.310151;stroke-linecap:round;stroke-dasharray:none;stroke-opacity:1"
         d="m -63.500235,-711.77926 c 8.86657,-9.32036 16.6815,-17.80726 22.48243,-29.22052"
         id="path18284" /><path
         style="fill:none;stroke:#f9f9f9;stroke-width:0.310151;stroke-linecap:round;stroke-dasharray:none;stroke-opacity:1"
         d="m -66.104575,-717.53737 c 7.51857,-7.11045 13.43883,-14.84253 17.76067,-23.2405"
         id="path18286" /><path
         style="fill:none;stroke:#f9f9f9;stroke-width:0.310151;stroke-linecap:round;stroke-dasharray:none;stroke-opacity:1"
         d="m -68.990205,-725.23765 c 5.27741,-3.46533 10.19637,-9.8004 13.36451,-15.45136"
         id="path18288" /><path
         style="fill:none;stroke:#f9f9f9;stroke-width:0.310151;stroke-linecap:round;stroke-dasharray:none;stroke-opacity:1"
         d="m -71.387785,-732.25297 c 3.43364,-1.95364 6.11244,-5.81642 8.79132,-8.92445"
         id="path18290" /><path
         style="fill:none;stroke:#f9f9f9;stroke-width:0.310151;stroke-linecap:round;stroke-dasharray:none;stroke-opacity:1"
         d="m -38.168985,-709.9544 c -5.65277,-7.04486 -12.67868,-17.02964 -16.08018,-30.91217"
         id="path18292" /><path
         style="fill:none;stroke:#f9f9f9;stroke-width:0.310151;stroke-linecap:round;stroke-dasharray:none;stroke-opacity:1"
         d="m -46.701025,-740.91108 c 1.62803,7.48116 6.91478,15.78213 12.27246,21.32942"
         id="path18294" /><path
         style="fill:none;stroke:#f9f9f9;stroke-width:0.310151;stroke-linecap:round;stroke-dasharray:none;stroke-opacity:1"
         d="m -39.544935,-741.13345 c 1.41121,4.43012 4.60553,9.31748 7.94729,12.20701"
         id="path18296" /><path
         style="fill:none;stroke:#f9f9f9;stroke-width:0.310151;stroke-linecap:round;stroke-dasharray:none;stroke-opacity:1"
         d="m -32.816675,-741.9856 c 0.41196,1.43104 2.51933,3.67824 3.62206,4.73253"
         id="path18298" /><g
         id="g18368"
         transform="translate(-5.569286,-199.45021)"><rect
           style="fill:#008000;fill-opacity:1;stroke:#008000;stroke-width:1.64791;stroke-linecap:round;stroke-dasharray:none;stroke-opacity:1"
           id="rect18300"
           width="13.109364"
           height="14.834437"
           x="-52.23753"
           y="-558.96918"
           ry="0" /><ellipse
           style="fill:none;fill-opacity:0.3;stroke:#1a1a1a;stroke-width:1.97419;stroke-linecap:round;stroke-dasharray:none;stroke-opacity:1"
           id="ellipse18302"
           cx="-45.682858"
           cy="-545.81879"
           rx="24.769875"
           ry="5.0154967" /><ellipse
           style="fill:none;fill-opacity:0.3;stroke:#008000;stroke-width:1.48064;stroke-linecap:round;stroke-dasharray:none;stroke-opacity:1"
           id="ellipse18304"
           cx="-45.682858"
           cy="-545.81879"
           rx="24.769875"
           ry="5.0154967" /><ellipse
           style="fill:#1a1a1a;fill-opacity:1;stroke:#ffcc00;stroke-width:0;stroke-linecap:round;stroke-dasharray:none;stroke-opacity:1"
           id="circle18306"
           cx="-45.682858"
           cy="-546.94867"
           rx="1.1400073"
           ry="1.7218342" /><ellipse
           style="fill:#1a1a1a;fill-opacity:1;stroke:#ffcc00;stroke-width:0;stroke-linecap:round;stroke-dasharray:none;stroke-opacity:1"
           id="circle18308"
           cx="-45.682858"
           cy="-555.0199"
           rx="1.1400073"
           ry="1.7218342" /></g></g></g></svg>
