<?xml version="1.0" encoding="UTF-8" standalone="no"?>
<!-- Created with Inkscape (http://www.inkscape.org/) -->

<svg
   width="68.23291mm"
   height="68.23291mm"
   viewBox="0 0 68.23291 68.23291"
   version="1.1"
   id="svg5"
   xml:space="preserve"
   xmlns="http://www.w3.org/2000/svg"
   xmlns:svg="http://www.w3.org/2000/svg"><defs
     id="defs2" /><g
     id="layer1"
     transform="translate(-362.07929,19.558378)"><g
       id="g1715"
       transform="rotate(-31.678431,341.38982,-528.90006)"><g
         id="g2465"
         transform="rotate(-10.471086,102.63239,-37.630955)"><g
           id="g1709"
           transform="translate(106.80235,-379.43665)"><circle
             style="fill:#fb4b05;fill-opacity:1;stroke:#000000;stroke-width:1.5;stroke-dasharray:none"
             id="circle1703"
             cx="-4.1699576"
             cy="341.80569"
             r="33.370876" /><path
             style="fill-opacity:0;stroke:#000000;stroke-width:1.46404;stroke-linecap:round;stroke-dasharray:none;stroke-opacity:1"
             d="m -20.505734,370.75902 c 6.024627,-3.61631 6.599421,-6.51687 8.391945,-10.93231 1.28312,-3.16065 1.854594,-8.10018 9.0652133,-12.12563 5.467519,-2.82381 14.0680907,-3.49597 15.7879507,-3.83835 7.13471,-0.82395 9.72287,-1.53939 11.57979,-2.43867 3.71384,-1.79856 4.641711,-4.18369 4.423841,-4.18802"
             id="path1705" /><path
             style="fill-opacity:0;stroke:#000000;stroke-width:1.5;stroke-dasharray:none;stroke-opacity:1"
             d="m 5.0768804,309.60882 c -9.3169844,2.53326 -10.9420079,11.95521 -20.5922534,14.82379 -4.839682,1.85159 -16.910356,-0.27497 -17.155946,0.0687"
             id="path1707" /></g><path
           style="opacity:1;fill-opacity:0;stroke:#000000;stroke-width:1.5;stroke-linecap:round;stroke-dasharray:none;stroke-opacity:1"
           d="m 84.686981,-65.487929 c 0,0 13.903461,14.080577 18.490369,26.358409 5.41157,14.485186 3.29796,34.3709124 3.29796,34.3709124"
           id="path1711" /><path
           style="opacity:1;fill-opacity:0;stroke:#000000;stroke-width:1.5;stroke-linecap:round;stroke-dasharray:none;stroke-opacity:1"
           d="m 71.007205,-25.843612 c 0,0 16.081893,-14.374796 28.729062,-20.323617 13.434253,-6.319041 30.736333,-10.287263 30.736333,-10.287263"
           id="path1713" /></g></g></g></svg>
