<?xml version="1.0" encoding="UTF-8" standalone="no"?>
<!-- Created with Inkscape (http://www.inkscape.org/) -->

<svg
   width="68.24353mm"
   height="68.243568mm"
   viewBox="0 0 68.24353 68.243568"
   version="1.1"
   id="svg5"
   xml:space="preserve"
   xmlns="http://www.w3.org/2000/svg"
   xmlns:svg="http://www.w3.org/2000/svg"><defs
     id="defs2" /><g
     id="layer1"
     transform="translate(-321.60725,-71.70986)"><g
       id="g1731"
       transform="rotate(-31.644684,420.96416,157.16783)"><g
         id="g1693"
         transform="translate(314.13789,-47.672683)"><circle
           style="fill:#fb4b05;fill-opacity:1;stroke:#000000;stroke-width:1.5;stroke-dasharray:none"
           id="circle1687"
           cx="78.223946"
           cy="126.91147"
           r="33.370876" /><path
           style="fill-opacity:0;stroke:#000000;stroke-width:1.46404;stroke-linecap:round;stroke-dasharray:none;stroke-opacity:1"
           d="m 60.431308,154.67036 c 2.613576,-3.84277 4.131034,-8.64941 9.184236,-11.57626 5.32494,-3.08426 14.34944,-4.04083 16.0693,-4.38321 7.13471,-0.82395 9.72288,-1.53939 11.5798,-2.43867 3.713836,-1.79856 6.061066,-4.62724 8.859316,-8.17996 4.17214,-5.29706 4.34941,-10.17032 4.34937,-10.17635"
           id="path1689" /><path
           style="opacity:1;fill-opacity:0;stroke:#000000;stroke-width:1.5;stroke-dasharray:none;stroke-opacity:1"
           d="m 90.278534,96.09482 c 0,0 -0.11301,-1.99875 -8.41384,0.80445 -9.19153,3.28599 -11.56928,11.57885 -21.094071,14.07106 -4.21241,1.47523 -12.331269,0.7914 -12.576859,1.13509"
           id="path1691" /></g><path
         style="opacity:1;fill-opacity:0;stroke:#000000;stroke-width:1.5;stroke-linecap:round;stroke-dasharray:none;stroke-opacity:1"
         d="m 360.72299,69.747421 c 0,0 11.75432,6.471253 18.72847,15.166563 6.73923,8.402427 10.40814,27.171126 10.40814,27.171126"
         id="path1697" /><path
         style="opacity:1;fill-opacity:0;stroke:#000000;stroke-width:1.47614;stroke-linecap:round;stroke-dasharray:none;stroke-opacity:1"
         d="m 361.88952,91.141536 c 0,0 17.17261,-15.694438 27.28261,-21.076293 9.30004,-4.950689 29.92684,-9.902992 29.92684,-9.902992"
         id="path1701" /></g></g></svg>
