<?xml version="1.0" encoding="UTF-8" standalone="no"?>
<!-- Created with Inkscape (http://www.inkscape.org/) -->

<svg
   width="51.513943mm"
   height="54.082714mm"
   viewBox="0 0 51.513943 54.082714"
   version="1.1"
   id="svg260"
   xml:space="preserve"
   xmlns="http://www.w3.org/2000/svg"
   xmlns:svg="http://www.w3.org/2000/svg"><defs
     id="defs257" /><g
     id="layer1"
     transform="translate(-42.637765,545.47545)"><g
       id="g18582"
       transform="translate(-103.18751,58.737497)"><path
         style="fill:none;stroke:#1a1a1a;stroke-width:0.542765;stroke-linecap:round;stroke-dasharray:none;stroke-opacity:1"
         d="m 147.89453,-589.0153 c 0.40176,3.01676 11.80613,36.92709 15.60303,38.17374 2.96039,0.97201 26.55369,-35.57622 25.51076,-36.61949"
         id="path18416" /><path
         style="fill:none;stroke:#1a1a1a;stroke-width:0.542765;stroke-linecap:round;stroke-dasharray:none;stroke-opacity:1"
         d="m 152.16441,-587.75934 c -1.75013,1.50687 13.43613,37.22514 16.99337,37.35734 3.18823,0.11856 25.40939,-37.01765 25.57354,-37.60709"
         id="path18418" /><path
         style="fill:none;stroke:#1a1a1a;stroke-width:0.542765;stroke-linecap:round;stroke-dasharray:none;stroke-opacity:1"
         d="m 155.5228,-587.19425 c -2.00134,-0.75351 14.68703,36.69797 18.81435,36.79225 4.57227,0.10444 19.30268,-32.24388 20.70809,-37.85824"
         id="path18420" /><path
         style="fill:none;stroke:#1a1a1a;stroke-width:0.542765;stroke-linecap:round;stroke-dasharray:none;stroke-opacity:1"
         d="m 161.21224,-586.76601 c -0.20519,5.355 16.51269,36.34447 19.56785,36.32408 5.30883,-0.0357 13.79062,-36.28538 14.26515,-37.81831"
         id="path18422" /><path
         style="fill:none;stroke:#1a1a1a;stroke-width:0.542765;stroke-linecap:round;stroke-dasharray:none;stroke-opacity:1"
         d="m 159.33414,-557.30822 c 8.86657,-9.32036 16.6815,-17.80726 22.48243,-29.22052"
         id="path18424" /><path
         style="fill:none;stroke:#1a1a1a;stroke-width:0.542765;stroke-linecap:round;stroke-dasharray:none;stroke-opacity:1"
         d="m 156.7298,-563.06633 c 7.51857,-7.11045 13.43883,-14.84253 17.76067,-23.2405"
         id="path18426" /><path
         style="fill:none;stroke:#1a1a1a;stroke-width:0.542765;stroke-linecap:round;stroke-dasharray:none;stroke-opacity:1"
         d="m 153.84417,-570.76661 c 5.27741,-3.46533 10.19637,-9.8004 13.36451,-15.45136"
         id="path18428" /><path
         style="fill:none;stroke:#1a1a1a;stroke-width:0.542765;stroke-linecap:round;stroke-dasharray:none;stroke-opacity:1"
         d="m 151.44659,-577.78193 c 3.43364,-1.95364 6.11244,-5.81642 8.79132,-8.92445"
         id="path18430" /><path
         style="fill:none;stroke:#1a1a1a;stroke-width:0.542765;stroke-linecap:round;stroke-dasharray:none;stroke-opacity:1"
         d="m 184.66539,-555.48336 c -5.65277,-7.04486 -12.67868,-17.02964 -16.08018,-30.91217"
         id="path18432" /><path
         style="fill:none;stroke:#1a1a1a;stroke-width:0.542765;stroke-linecap:round;stroke-dasharray:none;stroke-opacity:1"
         d="m 176.13335,-586.44004 c 1.62803,7.48116 6.91478,15.78213 12.27246,21.32942"
         id="path18434" /><path
         style="fill:none;stroke:#1a1a1a;stroke-width:0.542765;stroke-linecap:round;stroke-dasharray:none;stroke-opacity:1"
         d="m 183.28944,-586.66241 c 1.41121,4.43012 4.60553,9.31748 7.94729,12.20701"
         id="path18436" /><path
         style="fill:none;stroke:#1a1a1a;stroke-width:0.542765;stroke-linecap:round;stroke-dasharray:none;stroke-opacity:1"
         d="m 190.0177,-587.51456 c 0.41196,1.43104 2.51933,3.67824 3.62206,4.73253"
         id="path18438" /><path
         style="fill:none;stroke:#f9f9f9;stroke-width:0.310151;stroke-linecap:round;stroke-dasharray:none;stroke-opacity:1"
         d="m 147.89453,-589.0153 c 0.40176,3.01676 11.80613,36.92709 15.60303,38.17374 2.96039,0.97201 26.55369,-35.57622 25.51076,-36.61949"
         id="path18440" /><path
         style="fill:none;stroke:#f9f9f9;stroke-width:0.310151;stroke-linecap:round;stroke-dasharray:none;stroke-opacity:1"
         d="m 152.16441,-587.75934 c -1.75013,1.50687 13.43613,37.22514 16.99337,37.35734 3.18823,0.11856 25.40939,-37.01765 25.57354,-37.60709"
         id="path18442" /><path
         style="fill:none;stroke:#f9f9f9;stroke-width:0.310151;stroke-linecap:round;stroke-dasharray:none;stroke-opacity:1"
         d="m 155.5228,-587.19425 c -2.00134,-0.75351 14.68703,36.69797 18.81435,36.79225 4.57227,0.10444 19.30268,-32.24388 20.70809,-37.85824"
         id="path18444" /><path
         style="fill:none;stroke:#f9f9f9;stroke-width:0.310151;stroke-linecap:round;stroke-dasharray:none;stroke-opacity:1"
         d="m 161.21224,-586.76601 c -0.20519,5.355 16.51269,36.34447 19.56785,36.32408 5.30883,-0.0357 13.79062,-36.28538 14.26515,-37.81831"
         id="path18446" /><path
         style="fill:none;stroke:#f9f9f9;stroke-width:0.310151;stroke-linecap:round;stroke-dasharray:none;stroke-opacity:1"
         d="m 159.33414,-557.30822 c 8.86657,-9.32036 16.6815,-17.80726 22.48243,-29.22052"
         id="path18448" /><path
         style="fill:none;stroke:#f9f9f9;stroke-width:0.310151;stroke-linecap:round;stroke-dasharray:none;stroke-opacity:1"
         d="m 156.7298,-563.06633 c 7.51857,-7.11045 13.43883,-14.84253 17.76067,-23.2405"
         id="path18450" /><path
         style="fill:none;stroke:#f9f9f9;stroke-width:0.310151;stroke-linecap:round;stroke-dasharray:none;stroke-opacity:1"
         d="m 153.84417,-570.76661 c 5.27741,-3.46533 10.19637,-9.8004 13.36451,-15.45136"
         id="path18452" /><path
         style="fill:none;stroke:#f9f9f9;stroke-width:0.310151;stroke-linecap:round;stroke-dasharray:none;stroke-opacity:1"
         d="m 151.44659,-577.78193 c 3.43364,-1.95364 6.11244,-5.81642 8.79132,-8.92445"
         id="path18454" /><path
         style="fill:none;stroke:#f9f9f9;stroke-width:0.310151;stroke-linecap:round;stroke-dasharray:none;stroke-opacity:1"
         d="m 184.66539,-555.48336 c -5.65277,-7.04486 -12.67868,-17.02964 -16.08018,-30.91217"
         id="path18456" /><path
         style="fill:none;stroke:#f9f9f9;stroke-width:0.310151;stroke-linecap:round;stroke-dasharray:none;stroke-opacity:1"
         d="m 176.13335,-586.44004 c 1.62803,7.48116 6.91478,15.78213 12.27246,21.32942"
         id="path18458" /><path
         style="fill:none;stroke:#f9f9f9;stroke-width:0.310151;stroke-linecap:round;stroke-dasharray:none;stroke-opacity:1"
         d="m 183.28944,-586.66241 c 1.41121,4.43012 4.60553,9.31748 7.94729,12.20701"
         id="path18460" /><path
         style="fill:none;stroke:#f9f9f9;stroke-width:0.310151;stroke-linecap:round;stroke-dasharray:none;stroke-opacity:1"
         d="m 190.0177,-587.51456 c 0.41196,1.43104 2.51933,3.67824 3.62206,4.73253"
         id="path18462" /><rect
         style="fill:#ff0000;fill-opacity:1;stroke:none;stroke-width:1.64791;stroke-linecap:round;stroke-dasharray:none;stroke-opacity:1"
         id="rect18464"
         width="13.109364"
         height="14.834437"
         x="165.02757"
         y="-604.21295"
         ry="0" /><ellipse
         style="fill:none;fill-opacity:0.3;stroke:#1a1a1a;stroke-width:1.97419;stroke-linecap:round;stroke-dasharray:none;stroke-opacity:1"
         id="ellipse18466"
         cx="171.58224"
         cy="-591.06256"
         rx="24.769875"
         ry="5.0154967" /><ellipse
         style="fill:none;fill-opacity:0.3;stroke:#ff0000;stroke-width:1.48064;stroke-linecap:round;stroke-dasharray:none;stroke-opacity:1"
         id="ellipse18468"
         cx="171.58224"
         cy="-591.06256"
         rx="24.769875"
         ry="5.0154967" /><ellipse
         style="fill:#1a1a1a;fill-opacity:1;stroke:#ffcc00;stroke-width:0;stroke-linecap:round;stroke-dasharray:none;stroke-opacity:1"
         id="circle18470"
         cx="171.58224"
         cy="-592.19244"
         rx="1.1400073"
         ry="1.7218342" /><ellipse
         style="fill:#1a1a1a;fill-opacity:1;stroke:#ffcc00;stroke-width:0;stroke-linecap:round;stroke-dasharray:none;stroke-opacity:1"
         id="circle18472"
         cx="171.58224"
         cy="-600.26367"
         rx="1.1400073"
         ry="1.7218342" /></g></g></svg>
