<?xml version="1.0" encoding="UTF-8" standalone="no"?>
<!-- Created with Inkscape (http://www.inkscape.org/) -->

<svg
   width="68.247284mm"
   height="68.247284mm"
   viewBox="0 0 68.247284 68.247284"
   version="1.1"
   id="svg5"
   xml:space="preserve"
   xmlns="http://www.w3.org/2000/svg"
   xmlns:svg="http://www.w3.org/2000/svg"><defs
     id="defs2" /><g
     id="layer1"
     transform="translate(-280.16856,-162.36496)"><g
       id="g1723"
       transform="rotate(-28.93635,374.24094,243.25009)"><g
         id="g1685"
         transform="translate(324.67607,-20.574526)"><circle
           style="fill:#fb4b05;fill-opacity:1;stroke:#000000;stroke-width:1.5;stroke-dasharray:none"
           id="circle1679"
           cx="19.725246"
           cy="193.89548"
           r="33.370876" /><path
           style="fill-opacity:0;stroke:#000000;stroke-width:1.46404;stroke-linecap:round;stroke-dasharray:none;stroke-opacity:1"
           d="m 0.92897813,221.40345 c 9.66263987,-6.79844 15.29017987,-5.99108 18.72990987,-6.67584 7.13471,-0.82395 9.72288,-1.53939 11.5798,-2.43867 3.71384,-1.79856 6.63175,-4.18546 9.12545,-7.95819 4.01179,-6.06946 4.11872,-11.43094 4.06041,-17.18157 -0.06,-5.91872 -1.30829,-8.14116 1.98319,-12.97525"
           id="path1681" /><path
           style="opacity:1;fill-opacity:0;stroke:#000000;stroke-width:1.5;stroke-dasharray:none;stroke-opacity:1"
           d="m 35.460438,164.64254 c -5.12119,2.1525 -11.82269,-1.5552 -20.12352,1.248 -6.3348399,1.89575 -9.3882299,6.22956 -14.2019299,10.07527 -6.7502703,4.26509 -11.4375001,3.55641 -11.9286801,4.24378"
           id="path1683" /></g><path
         style="opacity:1;fill-opacity:0;stroke:#000000;stroke-width:1.5;stroke-linecap:round;stroke-dasharray:none;stroke-opacity:1"
         d="m 311.66708,177.70697 c 0,0 6.5744,3.62163 11.61296,10.03419 6.09207,7.75336 6.57404,15.12561 6.57404,15.12561"
         id="path1695" /><path
         style="opacity:1;fill-opacity:0;stroke:#000000;stroke-width:1.5;stroke-linecap:round;stroke-dasharray:none;stroke-opacity:1"
         d="m 315.9247,190.06976 c 0,0 6.00526,-11.10647 22.4259,-24.72082 13.58176,-11.26064 29.48179,-15.30544 29.48179,-15.30544"
         id="path1699" /></g></g></svg>
