<?xml version="1.0" encoding="UTF-8" standalone="no"?>
<!-- Created with Inkscape (http://www.inkscape.org/) -->

<svg
   width="51.146122mm"
   height="54.082718mm"
   viewBox="0 0 51.146122 54.082718"
   version="1.1"
   id="svg260"
   xml:space="preserve"
   xmlns="http://www.w3.org/2000/svg"
   xmlns:svg="http://www.w3.org/2000/svg"><defs
     id="defs257" /><g
     id="layer1"
     transform="translate(103.94371,288.20733)"><g
       id="g25247"><g
         id="g75926"
         transform="translate(671.09639,61.383419)"
         style="opacity:0.4"><path
           style="fill:none;stroke:#1a1a1a;stroke-width:0.542765;stroke-linecap:round;stroke-dasharray:none;stroke-opacity:1"
           d="m -773.15475,-334.39313 c 0.40176,3.01676 11.80613,36.92709 15.60303,38.17374 2.96039,0.97201 26.55369,-35.57622 25.51076,-36.61949"
           id="path75866" /><path
           style="fill:none;stroke:#1a1a1a;stroke-width:0.542765;stroke-linecap:round;stroke-dasharray:none;stroke-opacity:1"
           d="m -768.88487,-333.13717 c -1.75013,1.50687 13.43613,37.22514 16.99337,37.35734 3.18823,0.11856 25.40939,-37.01765 25.57354,-37.60709"
           id="path75868" /><path
           style="fill:none;stroke:#1a1a1a;stroke-width:0.542765;stroke-linecap:round;stroke-dasharray:none;stroke-opacity:1"
           d="m -765.52648,-332.57208 c -2.00134,-0.75351 14.68703,36.69797 18.81435,36.79225 4.57227,0.10444 19.30268,-32.24388 20.70809,-37.85824"
           id="path75870" /><path
           style="fill:none;stroke:#1a1a1a;stroke-width:0.542765;stroke-linecap:round;stroke-dasharray:none;stroke-opacity:1"
           d="m -759.83704,-332.14384 c -0.20519,5.355 16.51269,36.34447 19.56785,36.32408 5.30883,-0.0357 13.79062,-36.28538 14.26515,-37.81831"
           id="path75872" /><path
           style="fill:none;stroke:#1a1a1a;stroke-width:0.542765;stroke-linecap:round;stroke-dasharray:none;stroke-opacity:1"
           d="m -761.71514,-302.68605 c 8.86657,-9.32036 16.6815,-17.80726 22.48243,-29.22052"
           id="path75874" /><path
           style="fill:none;stroke:#1a1a1a;stroke-width:0.542765;stroke-linecap:round;stroke-dasharray:none;stroke-opacity:1"
           d="m -764.31948,-308.44416 c 7.51857,-7.11045 13.43883,-14.84253 17.76067,-23.2405"
           id="path75876" /><path
           style="fill:none;stroke:#1a1a1a;stroke-width:0.542765;stroke-linecap:round;stroke-dasharray:none;stroke-opacity:1"
           d="m -767.20511,-316.14444 c 5.27741,-3.46533 10.19637,-9.8004 13.36451,-15.45136"
           id="path75878" /><path
           style="fill:none;stroke:#1a1a1a;stroke-width:0.542765;stroke-linecap:round;stroke-dasharray:none;stroke-opacity:1"
           d="m -769.60269,-323.15976 c 3.43364,-1.95364 6.11244,-5.81642 8.79132,-8.92445"
           id="path75880" /><path
           style="fill:none;stroke:#1a1a1a;stroke-width:0.542765;stroke-linecap:round;stroke-dasharray:none;stroke-opacity:1"
           d="m -736.38389,-300.86119 c -5.65277,-7.04486 -12.67868,-17.02964 -16.08018,-30.91217"
           id="path75882" /><path
           style="fill:none;stroke:#1a1a1a;stroke-width:0.542765;stroke-linecap:round;stroke-dasharray:none;stroke-opacity:1"
           d="m -744.91593,-331.81787 c 1.62803,7.48116 6.91478,15.78213 12.27246,21.32942"
           id="path75884" /><path
           style="fill:none;stroke:#1a1a1a;stroke-width:0.542765;stroke-linecap:round;stroke-dasharray:none;stroke-opacity:1"
           d="m -737.75984,-332.04024 c 1.41121,4.43012 4.60553,9.31748 7.94729,12.20701"
           id="path75886" /><path
           style="fill:none;stroke:#1a1a1a;stroke-width:0.542765;stroke-linecap:round;stroke-dasharray:none;stroke-opacity:1"
           d="m -731.03158,-332.89239 c 0.41196,1.43104 2.51933,3.67824 3.62206,4.73253"
           id="path75888" /><path
           style="fill:none;stroke:#f9f9f9;stroke-width:0.310151;stroke-linecap:round;stroke-dasharray:none;stroke-opacity:1"
           d="m -773.15475,-334.39313 c 0.40176,3.01676 11.80613,36.92709 15.60303,38.17374 2.96039,0.97201 26.55369,-35.57622 25.51076,-36.61949"
           id="path75890" /><path
           style="fill:none;stroke:#f9f9f9;stroke-width:0.310151;stroke-linecap:round;stroke-dasharray:none;stroke-opacity:1"
           d="m -768.88487,-333.13717 c -1.75013,1.50687 13.43613,37.22514 16.99337,37.35734 3.18823,0.11856 25.40939,-37.01765 25.57354,-37.60709"
           id="path75892" /><path
           style="fill:none;stroke:#f9f9f9;stroke-width:0.310151;stroke-linecap:round;stroke-dasharray:none;stroke-opacity:1"
           d="m -765.52648,-332.57208 c -2.00134,-0.75351 14.68703,36.69797 18.81435,36.79225 4.57227,0.10444 19.30268,-32.24388 20.70809,-37.85824"
           id="path75894" /><path
           style="fill:none;stroke:#f9f9f9;stroke-width:0.310151;stroke-linecap:round;stroke-dasharray:none;stroke-opacity:1"
           d="m -759.83704,-332.14384 c -0.20519,5.355 16.51269,36.34447 19.56785,36.32408 5.30883,-0.0357 13.79062,-36.28538 14.26515,-37.81831"
           id="path75896" /><path
           style="fill:none;stroke:#f9f9f9;stroke-width:0.310151;stroke-linecap:round;stroke-dasharray:none;stroke-opacity:1"
           d="m -761.71514,-302.68605 c 8.86657,-9.32036 16.6815,-17.80726 22.48243,-29.22052"
           id="path75898" /><path
           style="fill:none;stroke:#f9f9f9;stroke-width:0.310151;stroke-linecap:round;stroke-dasharray:none;stroke-opacity:1"
           d="m -764.31948,-308.44416 c 7.51857,-7.11045 13.43883,-14.84253 17.76067,-23.2405"
           id="path75900" /><path
           style="fill:none;stroke:#f9f9f9;stroke-width:0.310151;stroke-linecap:round;stroke-dasharray:none;stroke-opacity:1"
           d="m -767.20511,-316.14444 c 5.27741,-3.46533 10.19637,-9.8004 13.36451,-15.45136"
           id="path75902" /><path
           style="fill:none;stroke:#f9f9f9;stroke-width:0.310151;stroke-linecap:round;stroke-dasharray:none;stroke-opacity:1"
           d="m -769.60269,-323.15976 c 3.43364,-1.95364 6.11244,-5.81642 8.79132,-8.92445"
           id="path75904" /><path
           style="fill:none;stroke:#f9f9f9;stroke-width:0.310151;stroke-linecap:round;stroke-dasharray:none;stroke-opacity:1"
           d="m -736.38389,-300.86119 c -5.65277,-7.04486 -12.67868,-17.02964 -16.08018,-30.91217"
           id="path75906" /><path
           style="fill:none;stroke:#f9f9f9;stroke-width:0.310151;stroke-linecap:round;stroke-dasharray:none;stroke-opacity:1"
           d="m -744.91593,-331.81787 c 1.62803,7.48116 6.91478,15.78213 12.27246,21.32942"
           id="path75908" /><path
           style="fill:none;stroke:#f9f9f9;stroke-width:0.310151;stroke-linecap:round;stroke-dasharray:none;stroke-opacity:1"
           d="m -737.75984,-332.04024 c 1.41121,4.43012 4.60553,9.31748 7.94729,12.20701"
           id="path75910" /><path
           style="fill:none;stroke:#f9f9f9;stroke-width:0.310151;stroke-linecap:round;stroke-dasharray:none;stroke-opacity:1"
           d="m -731.03158,-332.89239 c 0.41196,1.43104 2.51933,3.67824 3.62206,4.73253"
           id="path75912" /><g
           id="g75924"
           transform="matrix(0.80318697,0,0,1.2131105,-151.86799,11.696899)"><rect
             style="fill:#f53e22;fill-opacity:1;stroke:none;stroke-width:1.66946;stroke-linecap:round;stroke-dasharray:none;stroke-opacity:1"
             id="rect75914"
             width="16.321684"
             height="12.228431"
             x="-752.19562"
             y="-297.81924"
             ry="0" /><ellipse
             style="fill:none;fill-opacity:0.3;stroke:#1a1a1a;stroke-width:2;stroke-linecap:round;stroke-dasharray:none;stroke-opacity:1"
             id="ellipse75916"
             cx="-744.03479"
             cy="-286.97903"
             rx="30.839487"
             ry="4.1344104" /><ellipse
             style="fill:none;fill-opacity:0.3;stroke:#f53e22;stroke-width:1.5;stroke-linecap:round;stroke-dasharray:none;stroke-opacity:1"
             id="ellipse75918"
             cx="-744.03479"
             cy="-286.97903"
             rx="30.839487"
             ry="4.1344104" /><circle
             style="fill:#1a1a1a;fill-opacity:1;stroke:#ffcc00;stroke-width:0;stroke-linecap:round;stroke-dasharray:none;stroke-opacity:1"
             id="circle75920"
             cx="-744.03479"
             cy="-287.91043"
             r="1.4193548" /><circle
             style="fill:#1a1a1a;fill-opacity:1;stroke:#ffcc00;stroke-width:0;stroke-linecap:round;stroke-dasharray:none;stroke-opacity:1"
             id="circle75922"
             cx="-744.03479"
             cy="-294.56375"
             r="1.4193548" /></g></g></g></g></svg>
